<?xml version="1.0" standalone="no"?>
<!DOCTYPE svg PUBLIC "-//W3C//DTD SVG 20010904//EN"
 "http://www.w3.org/TR/2001/REC-SVG-20010904/DTD/svg10.dtd">
<svg version="1.0" xmlns="http://www.w3.org/2000/svg"
 width="499.000000pt" height="499.000000pt" viewBox="0 0 499.000000 499.000000"
 preserveAspectRatio="xMidYMid meet">
<metadata>
Created by potrace 1.16, written by Peter Selinger 2001-2019
</metadata>
<g transform="translate(0.000000,499.000000) scale(0.100000,-0.100000)"
fill="#000000" stroke="none">
<path d="M2290 3819 c0 -3 -24 -9 -54 -13 -29 -3 -93 -17 -141 -31 -48 -14
-95 -23 -105 -20 -10 3 -22 0 -26 -6 -5 -9 -2 -10 10 -6 10 4 15 3 11 -3 -3
-6 -11 -10 -17 -10 -20 0 -172 -82 -258 -139 -47 -31 -89 -56 -95 -56 -5 0
-10 -4 -10 -10 -1 -16 -147 -155 -157 -149 -5 3 -7 2 -6 -3 2 -4 -2 -10 -7
-13 -21 -9 -74 -81 -69 -94 3 -7 -6 -24 -18 -38 -13 -14 -29 -34 -36 -44 -7
-11 -10 -13 -6 -5 5 9 3 12 -4 7 -6 -4 -9 -13 -6 -20 3 -8 0 -17 -7 -22 -8 -5
-10 -3 -4 7 5 8 4 11 -1 6 -9 -9 -11 -14 -13 -48 -1 -12 -5 -17 -13 -13 -6 4
-8 3 -5 -2 7 -12 -23 -75 -33 -69 -17 11 -113 -274 -125 -371 -3 -27 -10 -87
-16 -134 -9 -79 -4 -295 8 -326 3 -8 10 -11 17 -7 7 4 7 2 -1 -8 -16 -19 2
-132 23 -154 8 -7 11 -22 8 -32 -5 -14 -4 -15 4 -4 8 11 14 1 27 -45 10 -32
22 -65 29 -73 8 -11 8 -15 -1 -18 -7 -3 -13 -12 -13 -21 0 -15 2 -15 10 -2 9
13 11 13 20 0 5 -8 10 -19 10 -25 0 -5 -4 -4 -9 4 -18 28 -19 -6 -1 -44 10
-22 19 -34 19 -27 1 17 18 15 18 -3 0 -8 -5 -15 -11 -15 -6 0 -5 -4 2 -9 8 -4
13 -12 13 -17 0 -5 18 -42 41 -82 l42 -73 18 23 c10 13 18 38 18 56 0 18 11
52 24 75 42 72 84 190 100 283 24 133 43 184 86 234 l40 45 1 -30 1 -30 10 29
c8 21 8 34 0 47 -16 25 -1 31 24 10 16 -13 25 -40 38 -126 10 -61 25 -144 36
-185 l18 -75 -5 95 c-3 52 -12 113 -19 135 -8 24 -10 41 -4 43 6 2 10 15 10
28 0 13 5 24 10 24 6 0 10 -11 10 -25 0 -29 28 -45 41 -24 5 8 11 33 15 57 4
27 14 48 28 58 11 8 48 34 81 58 33 25 80 52 104 62 l44 17 29 -34 c45 -53 61
-79 54 -87 -4 -3 -10 -2 -14 3 -4 6 -15 16 -25 24 -16 12 -15 9 4 -25 12 -21
16 -33 9 -26 -8 6 -19 12 -24 12 -6 0 -5 -4 3 -9 7 -5 15 -21 16 -36 3 -26 3
-26 -17 -8 -11 10 -26 30 -34 45 -16 31 -47 36 -78 13 -19 -14 -18 -15 10 -15
21 0 36 -9 57 -36 16 -19 26 -41 23 -49 -7 -19 13 -87 24 -80 4 3 11 -1 13 -7
3 -7 6 -4 6 7 1 24 41 54 41 31 0 -29 -33 -142 -52 -179 -26 -51 -17 -58 13
-10 12 21 49 75 81 121 39 56 58 92 58 112 0 17 -4 30 -10 30 -5 0 -10 9 -10
20 0 16 7 20 38 21 123 5 159 16 148 46 -3 7 0 13 7 13 9 0 9 2 -1 8 -7 5 -11
22 -9 43 3 27 9 35 28 37 12 2 28 -3 34 -11 9 -13 13 -11 23 13 20 45 55 63
99 51 21 -6 41 -7 45 -3 4 4 -30 45 -75 92 l-83 85 101 64 c55 35 111 74 125
87 l24 24 21 -56 20 -55 82 -29 c45 -15 84 -26 87 -22 3 3 6 1 6 -5 0 -17 48
-31 148 -44 50 -7 92 -16 92 -19 0 -4 15 -5 33 -4 17 2 23 1 12 -2 -33 -10
-40 -23 -14 -28 30 -6 121 -14 97 -9 -10 3 -18 8 -18 13 0 5 -7 6 -17 3 -11
-4 -14 -3 -9 5 13 22 63 14 83 -14 15 -20 28 -25 60 -26 32 0 42 -5 46 -19 4
-13 14 -19 34 -19 38 0 73 -10 73 -22 0 -5 -9 -4 -20 2 -14 7 -20 7 -20 0 0
-5 -5 -10 -11 -10 -5 0 -7 5 -3 12 5 7 3 8 -7 2 -8 -4 -24 -7 -36 -5 -17 2
-21 -2 -17 -13 4 -10 -2 -16 -23 -18 -18 -2 -7 -6 35 -12 34 -4 62 -11 62 -16
0 -7 -52 -5 -75 4 -5 2 -19 0 -30 -4 -16 -7 -15 -8 10 -8 17 0 41 -4 55 -10
20 -8 15 -9 -32 -8 -88 2 -58 -12 42 -20 49 -3 87 -10 84 -15 -3 -5 -1 -9 5
-9 5 0 11 5 13 12 5 13 28 2 28 -14 0 -7 -13 -8 -37 -3 -21 4 -55 7 -77 6 -21
-1 -44 3 -50 8 -15 13 -57 10 -53 -4 2 -5 17 -13 33 -16 l29 -7 -30 -1 c-26
-1 -28 -3 -14 -14 9 -7 14 -18 12 -24 -3 -7 2 -13 11 -13 18 0 22 -16 5 -22
-9 -3 -8 -14 2 -41 13 -38 32 -51 27 -19 -2 11 2 16 12 14 26 -6 64 -5 96 2
27 6 31 11 28 36 -2 16 3 33 12 40 19 17 103 24 119 10 38 -31 71 112 34 146
-11 9 -19 14 -19 10 0 -4 -18 10 -40 30 -22 20 -37 41 -34 45 3 5 -1 9 -9 9
-18 0 -67 52 -67 71 0 8 5 20 12 27 8 8 8 15 -1 26 -13 16 -6 56 9 56 5 0 11
8 15 19 5 18 -17 43 -375 413 -41 43 -77 88 -80 100 -6 24 -8 18 -41 -111 -8
-33 -13 -41 -20 -30 -5 8 -9 9 -9 3 0 -6 -10 -9 -24 -7 -21 4 -25 12 -30 61
-4 32 -9 75 -12 97 l-6 40 54 0 c30 0 59 5 66 12 22 21 33 15 27 -14 -4 -22
-2 -20 8 7 17 42 18 41 -95 59 l-77 12 -77 -40 c-43 -23 -79 -41 -81 -41 -1 0
12 24 31 53 18 28 31 58 28 66 -2 8 0 11 6 8 5 -4 15 0 22 8 9 11 7 21 -14 48
-44 58 -81 86 -99 75 -13 -7 -17 -5 -17 7 0 10 5 13 12 9 13 -8 6 5 -27 51
-12 17 -30 49 -40 72 -10 23 -21 40 -25 38 -4 -2 -18 7 -31 21 -51 55 -108 79
-202 84 -54 3 -87 1 -87 -5 0 -7 -3 -7 -8 0 -7 11 -152 14 -152 4z m212 -173
c13 -19 9 -55 -7 -64 -18 -9 -8 -46 13 -48 6 -1 18 -2 25 -2 21 -3 36 -56 23
-80 -10 -19 -14 -20 -36 -9 -15 8 -24 21 -23 32 1 14 -5 11 -25 -13 -24 -28
-36 -32 -107 -41 -86 -10 -99 -19 -109 -75 -5 -28 -1 -39 29 -72 35 -38 38
-39 105 -40 38 0 67 3 64 8 -3 4 2 8 10 8 9 0 16 5 16 10 0 6 7 22 17 36 l16
25 20 -42 c15 -34 16 -43 5 -51 -10 -6 -7 -14 16 -32 l28 -24 -43 1 c-24 0
-61 -3 -81 -7 -39 -8 -45 -2 -29 24 26 39 -22 28 -93 -22 -21 -16 -44 -28 -51
-28 -6 0 -21 -9 -34 -21 -16 -16 -22 -31 -20 -58 4 -56 -9 -99 -29 -97 -22 1
-30 27 -31 99 -1 53 -3 58 -21 52 -15 -5 -20 -1 -24 17 -20 94 -1 174 37 162
15 -5 19 -3 14 9 -3 9 0 20 7 26 8 7 16 25 20 42 3 17 17 44 31 61 21 24 25
39 24 80 -2 37 2 54 14 63 9 7 14 15 11 18 -12 11 7 28 20 18 8 -7 17 -1 31
19 17 25 20 26 31 12 11 -15 14 -14 38 1 19 13 26 14 26 5 0 -7 5 -5 11 5 11
19 47 15 61 -7z m313 -306 c7 -8 15 -27 18 -41 6 -25 -6 -188 -19 -261 -5 -31
-4 -38 10 -38 12 0 16 9 16 34 0 20 6 36 14 39 11 4 12 -2 5 -31 -4 -20 -6
-39 -3 -43 5 -9 -25 -21 -37 -13 -5 3 -9 2 -10 -3 0 -4 -3 -17 -6 -28 -3 -11
-6 -30 -7 -42 0 -11 -4 -19 -8 -17 -3 2 -9 -9 -13 -26 -4 -16 -10 -32 -15 -35
-4 -3 -2 23 6 57 8 35 15 89 16 120 1 48 -3 62 -26 89 -31 36 -29 44 6 30 25
-9 26 -8 37 47 13 71 7 149 -14 172 -13 14 -13 19 -3 22 7 3 15 0 17 -6 2 -6
9 -18 16 -26z m105 -105 c17 -21 60 -113 60 -129 0 -7 14 -33 32 -57 47 -65
45 -74 -19 -72 -7 1 -13 -2 -13 -6 0 -10 -74 0 -81 11 -3 5 -5 64 -3 131 2 87
0 123 -9 129 -8 5 -7 8 4 8 9 0 22 -7 29 -15z m-895 -379 c23 -22 29 -65 14
-93 -11 -21 -18 -24 -49 -20 -30 5 -27 1 30 -28 36 -18 74 -43 85 -55 l20 -22
-38 22 c-44 26 -67 21 -67 -17 0 -20 -3 -24 -9 -14 -7 11 -18 11 -67 -1 -52
-13 -62 -13 -81 0 -21 13 -23 13 -23 -2 0 -23 -17 -20 -25 4 -7 22 -20 26 -30
10 -11 -18 -45 -10 -55 13 -5 12 -9 18 -10 12 0 -5 -4 -4 -9 4 -7 10 -13 11
-29 2 -16 -9 -26 -8 -41 1 -17 10 -23 9 -40 -6 -27 -25 -26 -16 5 62 27 67 27
84 1 57 -9 -8 -31 -15 -49 -14 -18 0 -26 3 -18 6 8 3 30 12 48 20 38 18 141
12 236 -14 46 -13 61 -14 64 -4 3 9 7 9 18 0 9 -7 31 -9 62 -5 32 4 42 3 32
-4 -12 -8 -11 -10 8 -10 12 0 22 4 22 9 0 25 -14 41 -36 41 -14 0 -24 6 -24
14 0 9 8 12 25 8 15 -2 25 0 25 7 0 6 -7 11 -16 11 -8 0 -12 5 -9 10 8 13 14
13 30 -4z m289 -168 c44 -33 82 -62 84 -63 1 -1 -16 -21 -38 -45 l-40 -44 -91
45 c-50 24 -93 48 -96 52 -3 5 23 -6 57 -23 34 -17 64 -30 65 -28 2 2 -4 41
-14 86 -11 45 -17 82 -14 82 3 0 42 -28 87 -62z"/>
<path d="M1973 2185 c-10 -7 -27 -15 -38 -18 -17 -4 -17 -5 4 -6 23 -1 24 -2
6 -21 -10 -11 -30 -21 -44 -21 l-26 -2 25 -4 c15 -2 53 -34 92 -76 38 -40 65
-63 61 -53 -5 16 -3 18 11 13 14 -5 17 -3 13 8 -4 8 0 20 7 27 19 19 27 58 11
51 -15 -5 -35 25 -35 54 -1 10 -16 28 -35 40 -28 18 -36 19 -52 8z"/>
<path d="M3590 2179 c-14 -6 -33 -8 -42 -5 -10 2 -16 1 -13 -4 2 -4 -8 -10
-24 -13 -24 -5 -28 -10 -24 -31 4 -18 13 -26 31 -28 14 -2 27 -9 30 -16 3 -9
-3 -11 -22 -6 -16 4 -26 2 -26 -5 0 -6 7 -11 15 -11 18 0 20 -16 3 -23 -7 -3
-3 -6 10 -6 12 -1 22 -6 22 -12 0 -5 -4 -8 -9 -4 -5 3 -12 1 -15 -4 -4 -5 6
-14 21 -20 21 -8 22 -10 6 -7 -15 3 -23 -1 -23 -10 0 -8 5 -14 11 -14 6 0 9
-7 5 -15 -4 -12 3 -15 29 -15 19 0 35 -5 35 -10 0 -6 -6 -10 -12 -9 -30 4 -44
-2 -45 -20 -1 -11 6 -21 18 -24 10 -3 19 -1 19 4 0 5 -4 9 -10 9 -5 0 -10 5
-10 10 0 6 7 10 15 10 8 0 15 -9 15 -20 0 -13 7 -20 20 -20 11 0 20 5 20 10 0
6 -7 10 -15 10 -8 0 -15 5 -15 11 0 6 7 9 15 6 8 -4 17 -2 20 3 4 6 1 10 -5
10 -7 0 -10 7 -6 15 3 9 0 15 -9 15 -21 0 -18 17 3 22 14 4 18 14 17 39 -1 18
-7 35 -13 37 -9 3 -8 7 1 17 18 18 10 83 -12 88 -13 4 -13 5 3 6 16 1 17 3 5
18 -10 11 -10 14 -1 9 6 -4 12 -2 12 3 0 13 -17 13 -50 0z"/>
<path d="M3170 1572 c0 -66 5 -102 16 -124 20 -39 13 -80 -21 -120 -26 -31
-27 -45 -9 -110 7 -23 13 -23 48 6 30 23 30 24 30 129 1 58 -2 100 -6 94 -11
-17 -10 21 2 82 8 43 7 55 -5 68 -8 8 -15 26 -15 41 0 21 -2 24 -10 12 -9 -13
-11 -13 -20 0 -7 10 -10 -13 -10 -78z"/>
<path d="M1848 1366 c-10 -7 -18 -20 -18 -29 0 -22 -47 -75 -82 -93 -16 -8
-38 -22 -48 -31 -19 -16 -17 -18 37 -55 l57 -37 38 77 c36 73 61 182 42 182
-5 0 -17 -7 -26 -14z"/>
</g>
</svg>
